<mxfile host="65bd71144e">
    <diagram id="r9j_cyo6ONZktQl-MgjH" name="Page-1">
        <mxGraphModel dx="1726" dy="1390" grid="1" gridSize="10" guides="1" tooltips="1" connect="1" arrows="1" fold="1" page="0" pageScale="1" pageWidth="850" pageHeight="1100" math="0" shadow="0">
            <root>
                <mxCell id="0"/>
                <mxCell id="1" parent="0"/>
                <mxCell id="43" value="" style="rounded=0;whiteSpace=wrap;html=1;fontSize=18;fillColor=#FFFFFF;" vertex="1" parent="1">
                    <mxGeometry y="-160" width="1520" height="800" as="geometry"/>
                </mxCell>
                <mxCell id="5" value="" style="edgeStyle=none;html=1;fontSize=18;fillColor=#FFFFFF;" edge="1" parent="1" source="2" target="3">
                    <mxGeometry relative="1" as="geometry"/>
                </mxCell>
                <mxCell id="2" value="&lt;font style=&quot;font-size: 18px;&quot;&gt;นักศึกษา&lt;/font&gt;" style="rounded=0;whiteSpace=wrap;html=1;" vertex="1" parent="1">
                    <mxGeometry x="80" y="-40" width="160" height="80" as="geometry"/>
                </mxCell>
                <mxCell id="15" style="edgeStyle=none;html=1;entryX=0;entryY=0.25;entryDx=0;entryDy=0;fontSize=18;fillColor=#FFFFFF;" edge="1" parent="1" source="3" target="7">
                    <mxGeometry relative="1" as="geometry"/>
                </mxCell>
                <mxCell id="16" value="" style="edgeStyle=none;html=1;fontSize=18;fillColor=#FFFFFF;" edge="1" parent="1" source="3" target="6">
                    <mxGeometry relative="1" as="geometry"/>
                </mxCell>
                <mxCell id="17" style="edgeStyle=none;html=1;entryX=0;entryY=0.25;entryDx=0;entryDy=0;fontSize=18;fillColor=#FFFFFF;" edge="1" parent="1" source="3" target="8">
                    <mxGeometry relative="1" as="geometry"/>
                </mxCell>
                <mxCell id="18" style="edgeStyle=none;html=1;entryX=0;entryY=0.25;entryDx=0;entryDy=0;fontSize=18;fillColor=#FFFFFF;" edge="1" parent="1" source="3" target="9">
                    <mxGeometry relative="1" as="geometry"/>
                </mxCell>
                <mxCell id="19" style="edgeStyle=none;html=1;fontSize=18;entryX=0;entryY=0.25;entryDx=0;entryDy=0;fillColor=#FFFFFF;" edge="1" parent="1" source="3" target="10">
                    <mxGeometry relative="1" as="geometry">
                        <mxPoint x="560" y="430" as="targetPoint"/>
                    </mxGeometry>
                </mxCell>
                <mxCell id="3" value="&lt;font style=&quot;font-size: 18px;&quot;&gt;เรียนเสร็จ&lt;/font&gt;" style="rounded=0;whiteSpace=wrap;html=1;" vertex="1" parent="1">
                    <mxGeometry x="320" y="-40" width="160" height="80" as="geometry"/>
                </mxCell>
                <mxCell id="28" style="edgeStyle=none;html=1;entryX=0;entryY=0;entryDx=0;entryDy=0;fontSize=18;fillColor=#FFFFFF;" edge="1" parent="1" source="6" target="25">
                    <mxGeometry relative="1" as="geometry"/>
                </mxCell>
                <mxCell id="31" style="edgeStyle=none;html=1;entryX=0;entryY=0;entryDx=0;entryDy=0;fontSize=18;fillColor=#FFFFFF;" edge="1" parent="1" source="6" target="26">
                    <mxGeometry relative="1" as="geometry"/>
                </mxCell>
                <mxCell id="6" value="&lt;font style=&quot;font-size: 18px;&quot;&gt;เดิน&lt;/font&gt;" style="rounded=0;whiteSpace=wrap;html=1;" vertex="1" parent="1">
                    <mxGeometry x="600" y="-40" width="160" height="80" as="geometry"/>
                </mxCell>
                <mxCell id="29" style="edgeStyle=none;html=1;entryX=0;entryY=0.25;entryDx=0;entryDy=0;fontSize=18;fillColor=#FFFFFF;" edge="1" parent="1" source="7" target="25">
                    <mxGeometry relative="1" as="geometry"/>
                </mxCell>
                <mxCell id="30" style="edgeStyle=none;html=1;entryX=0;entryY=0.25;entryDx=0;entryDy=0;fontSize=18;fillColor=#FFFFFF;" edge="1" parent="1" source="7" target="26">
                    <mxGeometry relative="1" as="geometry"/>
                </mxCell>
                <mxCell id="7" value="&lt;font style=&quot;font-size: 18px;&quot;&gt;ปั่นจักรยาน&lt;/font&gt;" style="rounded=0;whiteSpace=wrap;html=1;" vertex="1" parent="1">
                    <mxGeometry x="600" y="80" width="160" height="80" as="geometry"/>
                </mxCell>
                <mxCell id="32" style="edgeStyle=none;html=1;fontSize=18;entryX=0;entryY=0.5;entryDx=0;entryDy=0;fillColor=#FFFFFF;" edge="1" parent="1" source="8" target="26">
                    <mxGeometry relative="1" as="geometry"/>
                </mxCell>
                <mxCell id="8" value="&lt;font style=&quot;font-size: 18px;&quot;&gt;gogo bike&lt;/font&gt;" style="rounded=0;whiteSpace=wrap;html=1;" vertex="1" parent="1">
                    <mxGeometry x="600" y="200" width="160" height="80" as="geometry"/>
                </mxCell>
                <mxCell id="33" style="edgeStyle=none;html=1;fontSize=18;entryX=0;entryY=0.75;entryDx=0;entryDy=0;fillColor=#FFFFFF;" edge="1" parent="1" source="9" target="25">
                    <mxGeometry relative="1" as="geometry">
                        <mxPoint x="890" y="320" as="targetPoint"/>
                    </mxGeometry>
                </mxCell>
                <mxCell id="34" style="edgeStyle=none;html=1;entryX=0;entryY=0.75;entryDx=0;entryDy=0;fontSize=18;fillColor=#FFFFFF;" edge="1" parent="1" source="9" target="26">
                    <mxGeometry relative="1" as="geometry"/>
                </mxCell>
                <mxCell id="9" value="&lt;font style=&quot;font-size: 18px;&quot;&gt;มอเตอร์ไซค์&lt;/font&gt;" style="rounded=0;whiteSpace=wrap;html=1;" vertex="1" parent="1">
                    <mxGeometry x="600" y="320" width="160" height="80" as="geometry"/>
                </mxCell>
                <mxCell id="35" style="edgeStyle=none;html=1;entryX=0;entryY=1;entryDx=0;entryDy=0;fontSize=18;fillColor=#FFFFFF;" edge="1" parent="1" source="10" target="26">
                    <mxGeometry relative="1" as="geometry"/>
                </mxCell>
                <mxCell id="36" style="edgeStyle=none;html=1;entryX=0;entryY=1;entryDx=0;entryDy=0;fontSize=18;fillColor=#FFFFFF;" edge="1" parent="1" source="10" target="25">
                    <mxGeometry relative="1" as="geometry"/>
                </mxCell>
                <mxCell id="37" style="edgeStyle=none;html=1;entryX=0;entryY=0.5;entryDx=0;entryDy=0;fontSize=18;fillColor=#FFFFFF;" edge="1" parent="1" source="10" target="27">
                    <mxGeometry relative="1" as="geometry"/>
                </mxCell>
                <mxCell id="10" value="&lt;font style=&quot;font-size: 18px;&quot;&gt;รถยนต์&lt;/font&gt;" style="rounded=0;whiteSpace=wrap;html=1;" vertex="1" parent="1">
                    <mxGeometry x="600" y="440" width="160" height="80" as="geometry"/>
                </mxCell>
                <mxCell id="14" value="" style="edgeStyle=none;html=1;fontSize=18;fillColor=#FFFFFF;" edge="1" parent="1" source="11" target="10">
                    <mxGeometry relative="1" as="geometry"/>
                </mxCell>
                <mxCell id="22" style="edgeStyle=none;html=1;exitX=1;exitY=0;exitDx=0;exitDy=0;entryX=0;entryY=0.75;entryDx=0;entryDy=0;fontSize=18;fillColor=#FFFFFF;" edge="1" parent="1" source="11" target="9">
                    <mxGeometry relative="1" as="geometry"/>
                </mxCell>
                <mxCell id="23" style="edgeStyle=none;html=1;entryX=0;entryY=0.75;entryDx=0;entryDy=0;fontSize=18;fillColor=#FFFFFF;" edge="1" parent="1" source="11" target="8">
                    <mxGeometry relative="1" as="geometry"/>
                </mxCell>
                <mxCell id="24" style="edgeStyle=none;html=1;entryX=0;entryY=0.75;entryDx=0;entryDy=0;fontSize=18;fillColor=#FFFFFF;" edge="1" parent="1" source="11" target="7">
                    <mxGeometry relative="1" as="geometry"/>
                </mxCell>
                <mxCell id="11" value="&lt;font style=&quot;font-size: 18px;&quot;&gt;สอนเสร็จ&lt;/font&gt;" style="rounded=0;whiteSpace=wrap;html=1;" vertex="1" parent="1">
                    <mxGeometry x="320" y="440" width="160" height="80" as="geometry"/>
                </mxCell>
                <mxCell id="13" value="" style="edgeStyle=none;html=1;fontSize=18;fillColor=#FFFFFF;" edge="1" parent="1" source="12" target="11">
                    <mxGeometry relative="1" as="geometry"/>
                </mxCell>
                <mxCell id="12" value="&lt;font style=&quot;font-size: 18px;&quot;&gt;อาจารย์&lt;/font&gt;" style="rounded=0;whiteSpace=wrap;html=1;" vertex="1" parent="1">
                    <mxGeometry x="80" y="440" width="160" height="80" as="geometry"/>
                </mxCell>
                <mxCell id="40" style="edgeStyle=none;html=1;entryX=0;entryY=0.5;entryDx=0;entryDy=0;fontSize=18;fillColor=#FFFFFF;" edge="1" parent="1" source="25" target="38">
                    <mxGeometry relative="1" as="geometry"/>
                </mxCell>
                <mxCell id="25" value="&lt;span style=&quot;font-size: 18px;&quot;&gt;หอใน&lt;/span&gt;" style="rounded=0;whiteSpace=wrap;html=1;" vertex="1" parent="1">
                    <mxGeometry x="1000" y="200" width="160" height="80" as="geometry"/>
                </mxCell>
                <mxCell id="39" style="edgeStyle=none;html=1;entryX=0;entryY=0.25;entryDx=0;entryDy=0;fontSize=18;fillColor=#FFFFFF;" edge="1" parent="1" source="26" target="38">
                    <mxGeometry relative="1" as="geometry"/>
                </mxCell>
                <mxCell id="26" value="&lt;font style=&quot;font-size: 18px;&quot;&gt;หอนอก&lt;/font&gt;" style="rounded=0;whiteSpace=wrap;html=1;" vertex="1" parent="1">
                    <mxGeometry x="1000" y="80" width="160" height="80" as="geometry"/>
                </mxCell>
                <mxCell id="41" style="edgeStyle=none;html=1;entryX=0;entryY=0.75;entryDx=0;entryDy=0;fontSize=18;fillColor=#FFFFFF;" edge="1" parent="1" source="27" target="38">
                    <mxGeometry relative="1" as="geometry"/>
                </mxCell>
                <mxCell id="27" value="&lt;font style=&quot;font-size: 18px;&quot;&gt;กทม.&lt;/font&gt;" style="rounded=0;whiteSpace=wrap;html=1;" vertex="1" parent="1">
                    <mxGeometry x="1000" y="320" width="160" height="80" as="geometry"/>
                </mxCell>
                <mxCell id="38" value="&lt;span style=&quot;font-size: 18px;&quot;&gt;ถึงจุดหมายอย่างปลอดภัย&lt;/span&gt;" style="rounded=0;whiteSpace=wrap;html=1;" vertex="1" parent="1">
                    <mxGeometry x="1240" y="200" width="160" height="80" as="geometry"/>
                </mxCell>
            </root>
        </mxGraphModel>
    </diagram>
</mxfile>